<svg viewBox="0 0 120 42" fill="none" xmlns="http://www.w3.org/2000/svg">
  <defs>
    <linearGradient id="nf-a" x1="0" y1="42" x2="60" y2="0" gradientUnits="userSpaceOnUse">
      <stop stop-color="#021830"/>
      <stop offset="0.55" stop-color="#0d4a8f"/>
      <stop offset="1" stop-color="#1b73cd"/>
    </linearGradient>
    <linearGradient id="nf-b" x1="0" y1="42" x2="60" y2="0" gradientUnits="userSpaceOnUse">
      <stop stop-color="#1b73cd"/>
      <stop offset="1" stop-color="#64b2df"/>
    </linearGradient>
    <linearGradient id="nf-c" x1="30" y1="32" x2="62" y2="0" gradientUnits="userSpaceOnUse">
      <stop stop-color="#64b2df"/>
      <stop offset="1" stop-color="#00e0ff"/>
    </linearGradient>
  </defs>

  <!-- Band 1 – dark navy/blue (back) -->
  <path d="M2 38 C6 30 12 22 19 17 C24 13 28 19 33 15 C38 11 43 5 48 1
           L52 5 C47 9 41 15 36 19 C31 23 27 17 22 21 C15 26 8 34 4 42 Z"
        fill="url(#nf-a)"/>

  <!-- Band 2 – blue (front wave) -->
  <path d="M0 42 C4 34 10 26 17 21 C22 17 26 23 31 19 C36 15 41 9 46 5
           L50 9 C45 13 39 19 34 23 C29 27 25 21 20 25 C13 30 6 38 2 46 Z"
        fill="url(#nf-b)" opacity="0.88"/>

  <!-- Arrow – cyan -->
  <path d="M35 18 L46 3 L54 3 L54 11 L43 26 Z" fill="url(#nf-c)"/>
  <path d="M46 3 L62 3 L62 10 L54 11 Z" fill="url(#nf-c)"/>

  <!-- NOVAFLOW text -->
  <text x="68" y="28"
        font-family="Inter, Arial, sans-serif"
        font-size="14"
        font-weight="700"
        letter-spacing="1.2"
        fill="#072049">NOVAFLOW</text>
</svg>
